<?xml version="1.0" encoding="utf-8"?>
<!-- Generator: Adobe Illustrator 28.0.0, SVG Export Plug-In . SVG Version: 6.00 Build 0)  -->
<svg version="1.1" id="Layer_2" xmlns="http://www.w3.org/2000/svg" xmlns:xlink="http://www.w3.org/1999/xlink" x="0px" y="0px"
	 viewBox="0 0 51 29" style="enable-background:new 0 0 51 29;" xml:space="preserve">
<style type="text/css">
	.st0{opacity:0.15;fill:#FFFFFF;}
</style>
<path id="right_ear" class="st0" d="M46.9,20.3c2.1,0,3.8,1.7,3.8,3.8v7.5c0,2.1-1.7,3.8-3.8,3.8h-1.3V20.3L46.9,20.3L46.9,20.3z"/>
<path id="left_ear" class="st0" d="M4.2,20.3h1.3v15.1H4.2c-2.1,0-3.8-1.7-3.8-3.8v-7.5C0.5,22,2.1,20.3,4.2,20.3z"/>
<circle id="right_eye" class="st0" cx="32.8" cy="23.7" r="3"/>
<circle id="left_eye" class="st0" cx="18.3" cy="23.7" r="3"/>
<path id="zap" class="st0" d="M33.2,6.8H28l-3.7-3.5l-2.2,3.5h-3.9c0,0,0,0,0-0.8s0-0.8,0-0.8H21l3-4.6l4.9,4.6h4.3c0,0,0,1.4,0,0.7
	S33.2,6.8,33.2,6.8z"/>
<path class="st0" d="M37.3,12.1h-0.9l1.4-3c0.2,0,0.4,0.1,0.6,0.1c1.7,0,3.1-1.4,3.1-3.1S40,2.9,38.3,2.9c-1.7,0-3.1,1.4-3.1,3.1
	c0,1,0.4,1.8,1.1,2.4l-1.7,3.7h-18l-1.7-3.8c0.6-0.6,1-1.4,1-2.3c0-1.7-1.4-3.1-3.1-3.1S9.7,4.3,9.7,6.1s1.4,3.1,3.1,3.1
	c0.3,0,0.5,0,0.7-0.1l1.4,3h-1.1c-3.6,0-6.5,2.9-6.5,6.5v20.9c0,3.6,2.9,6.5,6.5,6.5h23.4c3.6,0,6.5-2.9,6.5-6.5V18.6
	C43.7,15,40.8,12.1,37.3,12.1z M41.1,39.6c0,2.1-1.7,3.9-3.9,3.9H13.8c-2.1,0-3.9-1.7-3.9-3.9V18.6c0-2.1,1.7-3.9,3.9-3.9h23.4
	c2.1,0,3.9,1.7,3.9,3.9V39.6z"/>
</svg>
